<mxfile host="app.diagrams.net" modified="2022-10-09T03:13:27.612Z" agent="5.0 (X11; Linux x86_64) AppleWebKit/537.36 (KHTML, like Gecko) Chrome/106.0.0.0 Safari/537.36" etag="6MNakWVMBJ3eDeQIx-kN" version="20.0.4" type="github" pages="4">
  <diagram id="MVAri-hhUNU3gOKpKdhF" name="Intro">
    <mxGraphModel dx="1550" dy="709" grid="1" gridSize="10" guides="1" tooltips="1" connect="1" arrows="1" fold="1" page="1" pageScale="1" pageWidth="850" pageHeight="1100" math="0" shadow="0">
      <root>
        <mxCell id="0" />
        <mxCell id="1" parent="0" />
        <mxCell id="PO18Q1dCIVM4EUSyHFxl-1" value="&lt;ol&gt;&lt;li&gt;&lt;span style=&quot;font-weight: bold; font-family: &amp;quot;Droid Sans Mono&amp;quot;, &amp;quot;monospace&amp;quot;, monospace; font-size: 23px;&quot;&gt;The overall aim of the channel&lt;/span&gt;&lt;/li&gt;&lt;li&gt;&lt;span style=&quot;font-family: &amp;quot;Droid Sans Mono&amp;quot;, &amp;quot;monospace&amp;quot;, monospace; font-weight: bold;&quot;&gt;What is a social network platform?&lt;/span&gt;&lt;br&gt;&lt;/li&gt;&lt;li&gt;&lt;span style=&quot;font-weight: bold; font-family: &amp;quot;Droid Sans Mono&amp;quot;, &amp;quot;monospace&amp;quot;, monospace;&quot;&gt;What technologies are we going to use?&lt;/span&gt;&lt;br&gt;&lt;/li&gt;&lt;li&gt;&lt;span style=&quot;font-weight: bold; font-family: &amp;quot;Droid Sans Mono&amp;quot;, &amp;quot;monospace&amp;quot;, monospace;&quot;&gt;What is Django?&lt;/span&gt;&lt;/li&gt;&lt;li&gt;&lt;span style=&quot;font-weight: bold; font-family: &amp;quot;Droid Sans Mono&amp;quot;, &amp;quot;monospace&amp;quot;, monospace;&quot;&gt;One of Rumi&#39;s poems + Digital Art&lt;/span&gt;&lt;span style=&quot;color: rgb(166, 226, 46); font-family: &amp;quot;Droid Sans Mono&amp;quot;, &amp;quot;monospace&amp;quot;, monospace; font-weight: bold;&quot;&gt;&amp;nbsp;&lt;/span&gt;&lt;/li&gt;&lt;/ol&gt;&lt;span style=&quot;background-color: rgb(39, 40, 34); color: rgb(166, 226, 46); font-family: &amp;quot;Droid Sans Mono&amp;quot;, &amp;quot;monospace&amp;quot;, monospace; font-size: 23px; font-weight: bold;&quot;&gt;&lt;br&gt;&lt;/span&gt;" style="rounded=1;whiteSpace=wrap;html=1;fontSize=23;align=left;fillColor=#f5f5f5;fontColor=#333333;strokeColor=#666666;" vertex="1" parent="1">
          <mxGeometry x="120" y="90" width="610" height="430" as="geometry" />
        </mxCell>
        <mxCell id="PO18Q1dCIVM4EUSyHFxl-2" value="Intro" style="rounded=0;whiteSpace=wrap;html=1;fontSize=23;fillColor=#dae8fc;strokeColor=#6c8ebf;" vertex="1" parent="1">
          <mxGeometry x="368" y="40" width="120" height="60" as="geometry" />
        </mxCell>
      </root>
    </mxGraphModel>
  </diagram>
  <diagram name="Social Network Platforms" id="dd472eb7-4b8b-5cd9-a60b-b15522922e76">
    <mxGraphModel dx="1550" dy="709" grid="1" gridSize="10" guides="1" tooltips="1" connect="1" arrows="1" fold="1" page="1" pageScale="1" pageWidth="1100" pageHeight="850" background="#D9DEFF" math="0" shadow="0">
      <root>
        <mxCell id="0" />
        <mxCell id="1" parent="0" />
        <mxCell id="374e34682ed331ee-1" value="Social Media Platforms" style="ellipse;whiteSpace=wrap;html=1;rounded=0;shadow=0;dashed=0;comic=0;fontFamily=Verdana;fontSize=22;fontColor=#0069D1;fillColor=#f5f5f5;strokeColor=#666666;" parent="1" vertex="1">
          <mxGeometry x="360" y="180" width="400" height="400" as="geometry" />
        </mxCell>
        <mxCell id="45236fa5f4b8e91a-1" value="&lt;font style=&quot;font-size: 21px;&quot;&gt;Social Networks&lt;/font&gt;" style="ellipse;whiteSpace=wrap;html=1;rounded=0;shadow=0;dashed=0;comic=0;fontFamily=Verdana;fontSize=22;fontColor=#0069D1;fillColor=#f5f5f5;strokeColor=#666666;" parent="1" vertex="1">
          <mxGeometry x="680" y="200" width="160" height="160" as="geometry" />
        </mxCell>
        <mxCell id="45236fa5f4b8e91a-3" value="&lt;font style=&quot;font-size: 21px;&quot;&gt;Social Media Blogs&lt;/font&gt;" style="ellipse;whiteSpace=wrap;html=1;rounded=0;shadow=0;dashed=0;comic=0;fontFamily=Verdana;fontSize=22;fontColor=#0069D1;fillColor=#f5f5f5;strokeColor=#666666;" parent="1" vertex="1">
          <mxGeometry x="350" y="460" width="160" height="160" as="geometry" />
        </mxCell>
        <mxCell id="45236fa5f4b8e91a-4" value="&lt;font style=&quot;font-size: 21px;&quot;&gt;Discussion Forums&lt;/font&gt;" style="ellipse;whiteSpace=wrap;html=1;rounded=0;shadow=0;dashed=0;comic=0;fontFamily=Verdana;fontSize=22;fontColor=#0069D1;fillColor=#f5f5f5;strokeColor=#666666;" parent="1" vertex="1">
          <mxGeometry x="270" y="200" width="160" height="160" as="geometry" />
        </mxCell>
        <mxCell id="45236fa5f4b8e91a-5" value="&lt;font style=&quot;font-size: 21px;&quot;&gt;Consumer Review Networks&lt;/font&gt;" style="ellipse;whiteSpace=wrap;html=1;rounded=0;shadow=0;dashed=0;comic=0;fontFamily=Verdana;fontSize=22;fontColor=#0069D1;fillColor=#f5f5f5;strokeColor=#666666;" parent="1" vertex="1">
          <mxGeometry x="480" y="60" width="160" height="160" as="geometry" />
        </mxCell>
        <mxCell id="45236fa5f4b8e91a-6" value="&lt;font style=&quot;font-size: 21px;&quot;&gt;Media Sharing Networks&lt;/font&gt;" style="ellipse;whiteSpace=wrap;html=1;rounded=0;shadow=0;dashed=0;comic=0;fontFamily=Verdana;fontSize=22;fontColor=#0069D1;fillColor=#f5f5f5;strokeColor=#666666;" parent="1" vertex="1">
          <mxGeometry x="640" y="450" width="160" height="160" as="geometry" />
        </mxCell>
        <mxCell id="v1tIlH2106hp9z8CBVPY-1" value="" style="curved=1;endArrow=classic;html=1;rounded=0;fontSize=21;entryX=0;entryY=0.5;entryDx=0;entryDy=0;" parent="1" source="45236fa5f4b8e91a-5" target="v1tIlH2106hp9z8CBVPY-9" edge="1">
          <mxGeometry width="50" height="50" relative="1" as="geometry">
            <mxPoint x="670" y="130" as="sourcePoint" />
            <mxPoint x="720" y="80" as="targetPoint" />
            <Array as="points">
              <mxPoint x="720" y="130" />
              <mxPoint x="670" y="80" />
            </Array>
          </mxGeometry>
        </mxCell>
        <mxCell id="v1tIlH2106hp9z8CBVPY-5" value="" style="curved=1;endArrow=classic;html=1;rounded=0;fontSize=21;entryX=0;entryY=0.5;entryDx=0;entryDy=0;" parent="1" source="45236fa5f4b8e91a-1" target="v1tIlH2106hp9z8CBVPY-10" edge="1">
          <mxGeometry width="50" height="50" relative="1" as="geometry">
            <mxPoint x="860.0042062786312" y="295.0097371075856" as="sourcePoint" />
            <mxPoint x="940.16" y="240" as="targetPoint" />
            <Array as="points">
              <mxPoint x="940.16" y="290" />
              <mxPoint x="890.16" y="240" />
            </Array>
          </mxGeometry>
        </mxCell>
        <mxCell id="v1tIlH2106hp9z8CBVPY-6" value="" style="curved=1;endArrow=classic;html=1;rounded=0;fontSize=21;exitX=0.969;exitY=0.675;exitDx=0;exitDy=0;exitPerimeter=0;entryX=0;entryY=0.5;entryDx=0;entryDy=0;" parent="1" source="45236fa5f4b8e91a-6" target="v1tIlH2106hp9z8CBVPY-11" edge="1">
          <mxGeometry width="50" height="50" relative="1" as="geometry">
            <mxPoint x="810.0042062786312" y="567.5097371075856" as="sourcePoint" />
            <mxPoint x="890.16" y="512.5" as="targetPoint" />
            <Array as="points">
              <mxPoint x="890.16" y="562.5" />
              <mxPoint x="840.16" y="512.5" />
            </Array>
          </mxGeometry>
        </mxCell>
        <mxCell id="v1tIlH2106hp9z8CBVPY-7" value="" style="curved=1;endArrow=classic;html=1;rounded=0;fontSize=21;entryX=1;entryY=0.5;entryDx=0;entryDy=0;" parent="1" source="45236fa5f4b8e91a-3" target="v1tIlH2106hp9z8CBVPY-13" edge="1">
          <mxGeometry width="50" height="50" relative="1" as="geometry">
            <mxPoint x="330.16000000000014" y="557.5097371075856" as="sourcePoint" />
            <mxPoint x="250.00420627863133" y="502.5" as="targetPoint" />
            <Array as="points">
              <mxPoint x="250.00420627863133" y="552.5" />
              <mxPoint x="300.00420627863133" y="502.5" />
            </Array>
          </mxGeometry>
        </mxCell>
        <mxCell id="v1tIlH2106hp9z8CBVPY-8" value="" style="curved=1;endArrow=classic;html=1;rounded=0;fontSize=21;entryX=1;entryY=0.5;entryDx=0;entryDy=0;" parent="1" source="45236fa5f4b8e91a-4" target="v1tIlH2106hp9z8CBVPY-12" edge="1">
          <mxGeometry width="50" height="50" relative="1" as="geometry">
            <mxPoint x="260.1791659843452" y="297.851117364178" as="sourcePoint" />
            <mxPoint x="160.00420627863127" y="255" as="targetPoint" />
            <Array as="points">
              <mxPoint x="160.00420627863133" y="305" />
              <mxPoint x="210.00420627863133" y="255" />
            </Array>
          </mxGeometry>
        </mxCell>
        <mxCell id="v1tIlH2106hp9z8CBVPY-9" value="tripadviser, yelp" style="rounded=1;whiteSpace=wrap;html=1;fontSize=21;" parent="1" vertex="1">
          <mxGeometry x="730" y="50" width="120" height="60" as="geometry" />
        </mxCell>
        <mxCell id="v1tIlH2106hp9z8CBVPY-10" value="facebook, linkedin" style="rounded=1;whiteSpace=wrap;html=1;fontSize=21;" parent="1" vertex="1">
          <mxGeometry x="950" y="210" width="120" height="60" as="geometry" />
        </mxCell>
        <mxCell id="v1tIlH2106hp9z8CBVPY-11" value="Instagram, snapchat" style="rounded=1;whiteSpace=wrap;html=1;fontSize=21;" parent="1" vertex="1">
          <mxGeometry x="900" y="480" width="120" height="60" as="geometry" />
        </mxCell>
        <mxCell id="v1tIlH2106hp9z8CBVPY-12" value="Quora, Reddit" style="rounded=1;whiteSpace=wrap;html=1;fontSize=21;" parent="1" vertex="1">
          <mxGeometry x="30" y="220" width="120" height="60" as="geometry" />
        </mxCell>
        <mxCell id="v1tIlH2106hp9z8CBVPY-13" value="youtube" style="rounded=1;whiteSpace=wrap;html=1;fontSize=21;" parent="1" vertex="1">
          <mxGeometry x="120" y="470" width="120" height="60" as="geometry" />
        </mxCell>
      </root>
    </mxGraphModel>
  </diagram>
  <diagram id="S49CzjCvf5B0AX-5tmlo" name="Django installation">
    <mxGraphModel dx="1550" dy="709" grid="1" gridSize="10" guides="1" tooltips="1" connect="1" arrows="1" fold="1" page="1" pageScale="1" pageWidth="850" pageHeight="1100" math="0" shadow="0">
      <root>
        <mxCell id="0" />
        <mxCell id="1" parent="0" />
        <mxCell id="KTXlLto1ItqmHFq6f9du-1" value="&lt;div&gt;&lt;/div&gt;&lt;span style=&quot;background-color: rgb(39, 40, 34); color: rgb(166, 226, 46); font-family: &amp;quot;Droid Sans Mono&amp;quot;, &amp;quot;monospace&amp;quot;, monospace; font-size: 23px; font-weight: bold;&quot;&gt;$ python --version&lt;br&gt;$ mkdir collaboration.share&lt;br&gt;$ pipenv shell&lt;br&gt;$ python -m pip install django&lt;br&gt;&lt;/span&gt;" style="rounded=1;whiteSpace=wrap;html=1;fontSize=23;align=left;fillColor=#f5f5f5;fontColor=#333333;strokeColor=#666666;" vertex="1" parent="1">
          <mxGeometry x="120" y="90" width="610" height="430" as="geometry" />
        </mxCell>
        <mxCell id="KTXlLto1ItqmHFq6f9du-2" value="Django" style="rounded=0;whiteSpace=wrap;html=1;fontSize=23;fillColor=#dae8fc;strokeColor=#6c8ebf;" vertex="1" parent="1">
          <mxGeometry x="368" y="40" width="120" height="60" as="geometry" />
        </mxCell>
      </root>
    </mxGraphModel>
  </diagram>
  <diagram id="-mumlqvNmw7QSUBWjE3X" name="Rumi Quota">
    <mxGraphModel dx="1550" dy="709" grid="1" gridSize="10" guides="1" tooltips="1" connect="1" arrows="1" fold="1" page="1" pageScale="1" pageWidth="850" pageHeight="1100" math="0" shadow="0">
      <root>
        <mxCell id="0" />
        <mxCell id="1" parent="0" />
      </root>
    </mxGraphModel>
  </diagram>
</mxfile>
